# xmcd CD database file
#
# Track frame offsets:
#	150
#	17228
#	33652
#	51608
#	64782
#	80801
#	104385
#	125189
#	142290
#	163637
#	180835
#	208446
#	228333
#
# Disc length: 3207 seconds
#
# Revision: 0
# Processed by: cddbd v1.5.2PL0 Copyright (c) Steve Scherf et al.
# Submitted via: CDex 1.51
#
DISCID=ca0c850d
DTITLE=Mel Tormé - sings for lovers
DYEAR=2008
DGENRE=Jazz
TTITLE0=the song is you
TTITLE1=the way you look tonight
TTITLE2=nobody else but me
TTITLE3=you'd be so nice to come home to
TTITLE4=love walked in
TTITLE5=i get a kick out of you
TTITLE6=i'm glad here is you
TTITLE7=a lovely way to spend an evening
TTITLE8=more than you know
TTITLE9=moonlight becomes you
TTITLE10=my foolish heart
TTITLE11=stairway to the stars
TTITLE12=ev'ry time we say goodbye
EXTD=YEAR: 2008
EXTT0=
EXTT1=
EXTT2=
EXTT3=
EXTT4=
EXTT5=
EXTT6=
EXTT7=
EXTT8=
EXTT9=
EXTT10=
EXTT11=
EXTT12=
PLAYORDER=
